<?xml version="1.0" encoding="UTF-8"?>
<svg enable-background="new 0 0 512 512" fill="#0fa487" version="1.1" viewBox="0 0 512 512" xml:space="preserve" xmlns="http://www.w3.org/2000/svg">
		<path d="m458.67 85.333h-405.33c-29.397 0-53.333 23.936-53.333 53.334v234.67c0 29.397 23.936 53.333 53.333 53.333h405.33c29.397 0 53.333-23.936 53.333-53.333v-234.67c1e-3 -29.398-23.935-53.334-53.332-53.334zm32 288c0 17.643-14.357 32-32 32h-405.33c-17.643 0-32-14.357-32-32v-234.67c0-17.643 14.357-32 32-32h405.33c17.643 0 32 14.357 32 32v234.67z"/>
		<path d="m501.33 149.33h-490.67c-5.888 0-10.667 4.779-10.667 10.667v64c0 5.888 4.779 10.667 10.667 10.667h490.67c5.888 0 10.667-4.779 10.667-10.667v-64c-1e-3 -5.888-4.78-10.667-10.668-10.667zm-10.666 64h-469.33v-42.667h469.33v42.667z"/>
		<path d="m202.67 298.67h-128c-5.888 0-10.667 4.779-10.667 10.667s4.779 10.666 10.667 10.666h128c5.888 0 10.667-4.779 10.667-10.667s-4.779-10.666-10.667-10.666z"/>
		<path d="m202.67 341.33h-128c-5.888 0-10.667 4.779-10.667 10.667s4.779 10.667 10.667 10.667h128c5.888 0 10.667-4.779 10.667-10.667-1e-3 -5.888-4.779-10.667-10.667-10.667z"/>
		<path d="m416 277.33h-21.333c-17.643 0-32 14.357-32 32v21.333c0 17.643 14.357 32 32 32h21.333c17.643 0 32-14.357 32-32v-21.333c0-17.642-14.357-32-32-32zm10.667 53.334c0 5.888-4.779 10.667-10.667 10.667h-21.333c-5.888 0-10.667-4.779-10.667-10.667v-21.333c0-5.888 4.779-10.667 10.667-10.667h21.333c5.888 0 10.667 4.779 10.667 10.667v21.333z"/>
</svg>
